<svg width="554" height="395" viewBox="0 0 554 395" fill="none" xmlns="http://www.w3.org/2000/svg">
<rect width="554" height="395" fill="#E5E5E5"/>
<rect width="554" height="395" fill="white"/>
<g clip-path="url(#clip0)">
<path d="M210.071 225.365C215.929 217.258 219.394 207.312 219.394 196.564C219.4 189.885 218.041 183.275 215.4 177.141C215.331 176.916 215.234 176.7 215.11 176.5C208.171 160.992 193.458 149.711 175.958 147.658C175.815 147.628 175.671 147.61 175.526 147.602C173.756 147.409 171.977 147.311 170.197 147.309C154.148 147.309 139.872 155.045 130.886 166.986C130.655 167.211 130.464 167.474 130.323 167.765C124.465 175.87 121 185.817 121 196.564C120.994 203.244 122.354 209.854 124.994 215.989C125.066 216.216 125.16 216.432 125.284 216.629C132.209 232.105 146.875 243.369 164.326 245.458C164.543 245.512 164.763 245.54 164.982 245.542C166.696 245.723 168.435 245.821 170.197 245.821C186.246 245.821 200.522 238.085 209.508 226.144C209.741 225.913 209.935 225.653 210.071 225.365V225.365ZM207.699 218.825L185.752 180.774H210.849C212.809 185.807 213.814 191.162 213.812 196.564C213.819 204.401 211.707 212.094 207.699 218.825V218.825ZM179.306 212.354H161.089L151.982 196.564L161.088 180.774H179.306L188.413 196.565L179.306 212.354V212.354ZM208.205 175.185H164.312L176.872 153.409C190.325 155.487 201.762 163.747 208.205 175.185ZM170.197 152.898C170.37 152.898 170.54 152.909 170.713 152.911L148.758 190.976L136.218 169.233C144.218 159.282 156.474 152.898 170.197 152.898ZM132.696 174.303L154.642 212.354H129.546C127.586 207.321 126.581 201.966 126.583 196.564C126.575 188.728 128.688 181.035 132.696 174.303V174.303ZM132.189 217.944H159.47L159.481 217.944L159.491 217.944H176.083L163.522 239.72C150.069 237.642 138.633 229.381 132.189 217.944ZM170.197 240.231C170.024 240.231 169.854 240.22 169.681 240.218L191.637 202.153L204.177 223.895C196.176 233.847 183.92 240.231 170.197 240.231Z" fill="#182145"/>
</g>
<path d="M239.06 181.49C237.077 181.49 235.152 181.245 233.285 180.755C231.418 180.265 229.902 179.612 228.735 178.795L231.01 173.685C232.107 174.408 233.378 174.992 234.825 175.435C236.272 175.878 237.695 176.1 239.095 176.1C241.755 176.1 243.085 175.435 243.085 174.105C243.085 173.405 242.7 172.892 241.93 172.565C241.183 172.215 239.97 171.853 238.29 171.48C236.447 171.083 234.907 170.663 233.67 170.22C232.433 169.753 231.372 169.018 230.485 168.015C229.598 167.012 229.155 165.658 229.155 163.955C229.155 162.462 229.563 161.12 230.38 159.93C231.197 158.717 232.41 157.76 234.02 157.06C235.653 156.36 237.648 156.01 240.005 156.01C241.615 156.01 243.202 156.197 244.765 156.57C246.328 156.92 247.705 157.445 248.895 158.145L246.76 163.29C244.427 162.03 242.163 161.4 239.97 161.4C238.593 161.4 237.59 161.61 236.96 162.03C236.33 162.427 236.015 162.952 236.015 163.605C236.015 164.258 236.388 164.748 237.135 165.075C237.882 165.402 239.083 165.74 240.74 166.09C242.607 166.487 244.147 166.918 245.36 167.385C246.597 167.828 247.658 168.552 248.545 169.555C249.455 170.535 249.91 171.877 249.91 173.58C249.91 175.05 249.502 176.38 248.685 177.57C247.868 178.76 246.643 179.717 245.01 180.44C243.377 181.14 241.393 181.49 239.06 181.49ZM257.984 161.995H250.459V156.5H272.404V161.995H264.914V181H257.984V161.995ZM286.999 181.49C284.409 181.49 282.076 180.942 279.999 179.845C277.946 178.748 276.324 177.232 275.134 175.295C273.968 173.358 273.384 171.177 273.384 168.75C273.384 166.323 273.968 164.142 275.134 162.205C276.324 160.268 277.946 158.752 279.999 157.655C282.076 156.558 284.409 156.01 286.999 156.01C289.589 156.01 291.911 156.558 293.964 157.655C296.041 158.752 297.663 160.268 298.829 162.205C300.019 164.142 300.614 166.323 300.614 168.75C300.614 171.177 300.019 173.358 298.829 175.295C297.663 177.232 296.041 178.748 293.964 179.845C291.911 180.942 289.589 181.49 286.999 181.49ZM286.999 175.75C288.236 175.75 289.356 175.458 290.359 174.875C291.363 174.292 292.156 173.475 292.739 172.425C293.323 171.352 293.614 170.127 293.614 168.75C293.614 167.373 293.323 166.16 292.739 165.11C292.156 164.037 291.363 163.208 290.359 162.625C289.356 162.042 288.236 161.75 286.999 161.75C285.763 161.75 284.643 162.042 283.639 162.625C282.636 163.208 281.843 164.037 281.259 165.11C280.676 166.16 280.384 167.373 280.384 168.75C280.384 170.127 280.676 171.352 281.259 172.425C281.843 173.475 282.636 174.292 283.639 174.875C284.643 175.458 285.763 175.75 286.999 175.75ZM314.954 174.49H311.174V181H304.244V156.5H315.444C317.661 156.5 319.586 156.873 321.219 157.62C322.852 158.343 324.112 159.393 324.999 160.77C325.886 162.123 326.329 163.722 326.329 165.565C326.329 167.338 325.909 168.89 325.069 170.22C324.252 171.527 323.074 172.553 321.534 173.3L326.819 181H319.399L314.954 174.49ZM319.329 165.565C319.329 164.422 318.967 163.535 318.244 162.905C317.521 162.275 316.447 161.96 315.024 161.96H311.174V169.135H315.024C316.447 169.135 317.521 168.832 318.244 168.225C318.967 167.595 319.329 166.708 319.329 165.565ZM342.935 172.215V181H336.005V172.11L326.66 156.5H333.975L339.785 166.23L345.595 156.5H352.315L342.935 172.215ZM241.65 199.5C243.867 199.5 245.792 199.873 247.425 200.62C249.058 201.343 250.318 202.393 251.205 203.77C252.092 205.123 252.535 206.722 252.535 208.565C252.535 210.408 252.092 212.007 251.205 213.36C250.318 214.713 249.058 215.763 247.425 216.51C245.792 217.233 243.867 217.595 241.65 217.595H237.38V224H230.45V199.5H241.65ZM241.23 212.135C242.653 212.135 243.727 211.832 244.45 211.225C245.173 210.595 245.535 209.708 245.535 208.565C245.535 207.422 245.173 206.535 244.45 205.905C243.727 205.275 242.653 204.96 241.23 204.96H237.38V212.135H241.23ZM266.624 217.49H262.844V224H255.914V199.5H267.114C269.331 199.5 271.256 199.873 272.889 200.62C274.522 201.343 275.782 202.393 276.669 203.77C277.556 205.123 277.999 206.722 277.999 208.565C277.999 210.338 277.579 211.89 276.739 213.22C275.922 214.527 274.744 215.553 273.204 216.3L278.489 224H271.069L266.624 217.49ZM270.999 208.565C270.999 207.422 270.637 206.535 269.914 205.905C269.191 205.275 268.117 204.96 266.694 204.96H262.844V212.135H266.694C268.117 212.135 269.191 211.832 269.914 211.225C270.637 210.595 270.999 209.708 270.999 208.565ZM294.177 224.49C291.587 224.49 289.254 223.942 287.177 222.845C285.124 221.748 283.502 220.232 282.312 218.295C281.145 216.358 280.562 214.177 280.562 211.75C280.562 209.323 281.145 207.142 282.312 205.205C283.502 203.268 285.124 201.752 287.177 200.655C289.254 199.558 291.587 199.01 294.177 199.01C296.767 199.01 299.089 199.558 301.142 200.655C303.219 201.752 304.84 203.268 306.007 205.205C307.197 207.142 307.792 209.323 307.792 211.75C307.792 214.177 307.197 216.358 306.007 218.295C304.84 220.232 303.219 221.748 301.142 222.845C299.089 223.942 296.767 224.49 294.177 224.49ZM294.177 218.75C295.414 218.75 296.534 218.458 297.537 217.875C298.54 217.292 299.334 216.475 299.917 215.425C300.5 214.352 300.792 213.127 300.792 211.75C300.792 210.373 300.5 209.16 299.917 208.11C299.334 207.037 298.54 206.208 297.537 205.625C296.534 205.042 295.414 204.75 294.177 204.75C292.94 204.75 291.82 205.042 290.817 205.625C289.814 206.208 289.02 207.037 288.437 208.11C287.854 209.16 287.562 210.373 287.562 211.75C287.562 213.127 287.854 214.352 288.437 215.425C289.02 216.475 289.814 217.292 290.817 217.875C291.82 218.458 292.94 218.75 294.177 218.75ZM323.637 224.49C321.07 224.49 318.76 223.953 316.707 222.88C314.677 221.783 313.078 220.267 311.912 218.33C310.745 216.393 310.162 214.2 310.162 211.75C310.162 209.3 310.745 207.107 311.912 205.17C313.078 203.233 314.677 201.728 316.707 200.655C318.76 199.558 321.07 199.01 323.637 199.01C325.877 199.01 327.895 199.407 329.692 200.2C331.488 200.993 332.982 202.137 334.172 203.63L329.762 207.62C328.175 205.707 326.25 204.75 323.987 204.75C322.657 204.75 321.467 205.042 320.417 205.625C319.39 206.208 318.585 207.037 318.002 208.11C317.442 209.16 317.162 210.373 317.162 211.75C317.162 213.127 317.442 214.352 318.002 215.425C318.585 216.475 319.39 217.292 320.417 217.875C321.467 218.458 322.657 218.75 323.987 218.75C326.25 218.75 328.175 217.793 329.762 215.88L334.172 219.87C332.982 221.363 331.488 222.507 329.692 223.3C327.895 224.093 325.877 224.49 323.637 224.49ZM356.932 218.645V224H337.262V199.5H356.477V204.855H344.122V208.985H355.007V214.165H344.122V218.645H356.932ZM369.387 224.49C367.404 224.49 365.479 224.245 363.612 223.755C361.745 223.265 360.229 222.612 359.062 221.795L361.337 216.685C362.434 217.408 363.705 217.992 365.152 218.435C366.599 218.878 368.022 219.1 369.422 219.1C372.082 219.1 373.412 218.435 373.412 217.105C373.412 216.405 373.027 215.892 372.257 215.565C371.51 215.215 370.297 214.853 368.617 214.48C366.774 214.083 365.234 213.663 363.997 213.22C362.76 212.753 361.699 212.018 360.812 211.015C359.925 210.012 359.482 208.658 359.482 206.955C359.482 205.462 359.89 204.12 360.707 202.93C361.524 201.717 362.737 200.76 364.347 200.06C365.98 199.36 367.975 199.01 370.332 199.01C371.942 199.01 373.529 199.197 375.092 199.57C376.655 199.92 378.032 200.445 379.222 201.145L377.087 206.29C374.754 205.03 372.49 204.4 370.297 204.4C368.92 204.4 367.917 204.61 367.287 205.03C366.657 205.427 366.342 205.952 366.342 206.605C366.342 207.258 366.715 207.748 367.462 208.075C368.209 208.402 369.41 208.74 371.067 209.09C372.934 209.487 374.474 209.918 375.687 210.385C376.924 210.828 377.985 211.552 378.872 212.555C379.782 213.535 380.237 214.877 380.237 216.58C380.237 218.05 379.829 219.38 379.012 220.57C378.195 221.76 376.97 222.717 375.337 223.44C373.704 224.14 371.72 224.49 369.387 224.49ZM392.048 224.49C390.065 224.49 388.14 224.245 386.273 223.755C384.407 223.265 382.89 222.612 381.723 221.795L383.998 216.685C385.095 217.408 386.367 217.992 387.813 218.435C389.26 218.878 390.683 219.1 392.083 219.1C394.743 219.1 396.073 218.435 396.073 217.105C396.073 216.405 395.688 215.892 394.918 215.565C394.172 215.215 392.958 214.853 391.278 214.48C389.435 214.083 387.895 213.663 386.658 213.22C385.422 212.753 384.36 212.018 383.473 211.015C382.587 210.012 382.143 208.658 382.143 206.955C382.143 205.462 382.552 204.12 383.368 202.93C384.185 201.717 385.398 200.76 387.008 200.06C388.642 199.36 390.637 199.01 392.993 199.01C394.603 199.01 396.19 199.197 397.753 199.57C399.317 199.92 400.693 200.445 401.883 201.145L399.748 206.29C397.415 205.03 395.152 204.4 392.958 204.4C391.582 204.4 390.578 204.61 389.948 205.03C389.318 205.427 389.003 205.952 389.003 206.605C389.003 207.258 389.377 207.748 390.123 208.075C390.87 208.402 392.072 208.74 393.728 209.09C395.595 209.487 397.135 209.918 398.348 210.385C399.585 210.828 400.647 211.552 401.533 212.555C402.443 213.535 402.898 214.877 402.898 216.58C402.898 218.05 402.49 219.38 401.673 220.57C400.857 221.76 399.632 222.717 397.998 223.44C396.365 224.14 394.382 224.49 392.048 224.49Z" fill="#182145"/>
<path d="M235.584 241.164V243H228.84V234.6H235.428V236.436H231.192V237.852H234.924V239.628H231.192V241.164H235.584ZM241.031 236.388C241.839 236.388 242.487 236.628 242.975 237.108C243.471 237.588 243.719 238.312 243.719 239.28V243H241.439V239.652C241.439 238.764 241.083 238.32 240.371 238.32C239.979 238.32 239.663 238.448 239.423 238.704C239.191 238.96 239.075 239.344 239.075 239.856V243H236.795V236.496H238.967V237.204C239.223 236.94 239.527 236.74 239.879 236.604C240.231 236.46 240.615 236.388 241.031 236.388ZM252.24 236.496V241.812C252.24 243.02 251.912 243.924 251.256 244.524C250.6 245.132 249.656 245.436 248.424 245.436C247.784 245.436 247.184 245.364 246.624 245.22C246.064 245.076 245.588 244.864 245.196 244.584L246.024 242.988C246.288 243.204 246.62 243.372 247.02 243.492C247.428 243.62 247.828 243.684 248.22 243.684C248.82 243.684 249.26 243.552 249.54 243.288C249.82 243.024 249.96 242.632 249.96 242.112V241.896C249.52 242.408 248.876 242.664 248.028 242.664C247.452 242.664 246.92 242.536 246.432 242.28C245.944 242.016 245.556 241.648 245.268 241.176C244.98 240.696 244.836 240.144 244.836 239.52C244.836 238.904 244.98 238.36 245.268 237.888C245.556 237.408 245.944 237.04 246.432 236.784C246.92 236.52 247.452 236.388 248.028 236.388C248.956 236.388 249.636 236.688 250.068 237.288V236.496H252.24ZM248.568 240.852C248.976 240.852 249.312 240.728 249.576 240.48C249.848 240.232 249.984 239.912 249.984 239.52C249.984 239.128 249.852 238.812 249.588 238.572C249.324 238.324 248.984 238.2 248.568 238.2C248.152 238.2 247.808 238.324 247.536 238.572C247.272 238.812 247.14 239.128 247.14 239.52C247.14 239.912 247.276 240.232 247.548 240.48C247.82 240.728 248.16 240.852 248.568 240.852ZM256.477 236.388C257.557 236.388 258.381 236.636 258.949 237.132C259.517 237.62 259.801 238.372 259.801 239.388V243H257.677V242.16C257.349 242.792 256.709 243.108 255.757 243.108C255.253 243.108 254.817 243.02 254.449 242.844C254.081 242.668 253.801 242.432 253.609 242.136C253.425 241.832 253.333 241.488 253.333 241.104C253.333 240.488 253.569 240.012 254.041 239.676C254.513 239.332 255.241 239.16 256.225 239.16H257.521C257.481 238.472 257.021 238.128 256.141 238.128C255.829 238.128 255.513 238.18 255.193 238.284C254.873 238.38 254.601 238.516 254.377 238.692L253.609 237.144C253.969 236.904 254.405 236.72 254.917 236.592C255.437 236.456 255.957 236.388 256.477 236.388ZM256.393 241.668C256.657 241.668 256.889 241.604 257.089 241.476C257.289 241.348 257.433 241.16 257.521 240.912V240.348H256.537C255.873 240.348 255.541 240.568 255.541 241.008C255.541 241.208 255.617 241.368 255.769 241.488C255.921 241.608 256.129 241.668 256.393 241.668ZM268.33 236.496V241.812C268.33 243.02 268.002 243.924 267.346 244.524C266.69 245.132 265.746 245.436 264.514 245.436C263.874 245.436 263.274 245.364 262.714 245.22C262.154 245.076 261.678 244.864 261.286 244.584L262.114 242.988C262.378 243.204 262.71 243.372 263.11 243.492C263.518 243.62 263.918 243.684 264.31 243.684C264.91 243.684 265.35 243.552 265.63 243.288C265.91 243.024 266.05 242.632 266.05 242.112V241.896C265.61 242.408 264.966 242.664 264.118 242.664C263.542 242.664 263.01 242.536 262.522 242.28C262.034 242.016 261.646 241.648 261.358 241.176C261.07 240.696 260.926 240.144 260.926 239.52C260.926 238.904 261.07 238.36 261.358 237.888C261.646 237.408 262.034 237.04 262.522 236.784C263.01 236.52 263.542 236.388 264.118 236.388C265.046 236.388 265.726 236.688 266.158 237.288V236.496H268.33ZM264.658 240.852C265.066 240.852 265.402 240.728 265.666 240.48C265.938 240.232 266.074 239.912 266.074 239.52C266.074 239.128 265.942 238.812 265.678 238.572C265.414 238.324 265.074 238.2 264.658 238.2C264.242 238.2 263.898 238.324 263.626 238.572C263.362 238.812 263.23 239.128 263.23 239.52C263.23 239.912 263.366 240.232 263.638 240.48C263.91 240.728 264.25 240.852 264.658 240.852ZM276.443 239.76C276.443 239.776 276.431 239.964 276.407 240.324H271.679C271.775 240.66 271.959 240.92 272.23 241.104C272.511 241.28 272.859 241.368 273.275 241.368C273.587 241.368 273.855 241.324 274.079 241.236C274.311 241.148 274.543 241.004 274.775 240.804L275.975 242.052C275.343 242.756 274.419 243.108 273.203 243.108C272.443 243.108 271.775 242.964 271.199 242.676C270.623 242.388 270.175 241.988 269.854 241.476C269.543 240.964 269.387 240.384 269.387 239.736C269.387 239.096 269.539 238.524 269.843 238.02C270.155 237.508 270.583 237.108 271.127 236.82C271.671 236.532 272.283 236.388 272.963 236.388C273.611 236.388 274.199 236.524 274.727 236.796C275.255 237.06 275.671 237.448 275.975 237.96C276.287 238.464 276.443 239.064 276.443 239.76ZM272.975 238.008C272.623 238.008 272.327 238.108 272.087 238.308C271.855 238.508 271.707 238.78 271.643 239.124H274.307C274.243 238.78 274.091 238.508 273.851 238.308C273.619 238.108 273.327 238.008 272.975 238.008ZM278.454 243.108C278.07 243.108 277.746 242.98 277.482 242.724C277.218 242.468 277.086 242.144 277.086 241.752C277.086 241.352 277.214 241.028 277.47 240.78C277.734 240.532 278.062 240.408 278.454 240.408C278.854 240.408 279.182 240.532 279.438 240.78C279.694 241.028 279.822 241.352 279.822 241.752C279.822 242.144 279.69 242.468 279.426 242.724C279.17 242.98 278.846 243.108 278.454 243.108ZM284.492 234.6H286.868V243H284.492V234.6ZM292.687 236.388C293.495 236.388 294.143 236.628 294.631 237.108C295.127 237.588 295.375 238.312 295.375 239.28V243H293.095V239.652C293.095 238.764 292.739 238.32 292.027 238.32C291.635 238.32 291.319 238.448 291.079 238.704C290.847 238.96 290.731 239.344 290.731 239.856V243H288.451V236.496H290.623V237.204C290.879 236.94 291.183 236.74 291.535 236.604C291.887 236.46 292.271 236.388 292.687 236.388ZM299.29 236.736H300.838V238.44H299.35V243H297.07V238.44H296.122V236.736H297.07V236.568C297.07 235.776 297.306 235.148 297.778 234.684C298.258 234.22 298.926 233.988 299.782 233.988C300.07 233.988 300.35 234.016 300.622 234.072C300.894 234.128 301.118 234.212 301.294 234.324L300.73 235.932C300.506 235.804 300.278 235.74 300.046 235.74C299.806 235.74 299.618 235.812 299.482 235.956C299.354 236.1 299.29 236.312 299.29 236.592V236.736ZM301.678 234.096H303.958V243H301.678V234.096ZM312.271 236.496V243H310.099V242.304C309.859 242.568 309.571 242.768 309.235 242.904C308.899 243.04 308.543 243.108 308.167 243.108C307.327 243.108 306.655 242.86 306.151 242.364C305.655 241.868 305.407 241.124 305.407 240.132V236.496H307.687V239.76C307.687 240.248 307.779 240.604 307.963 240.828C308.147 241.052 308.415 241.164 308.767 241.164C309.127 241.164 309.419 241.04 309.643 240.792C309.875 240.536 309.991 240.148 309.991 239.628V236.496H312.271ZM320.388 239.76C320.388 239.776 320.376 239.964 320.352 240.324H315.624C315.72 240.66 315.904 240.92 316.176 241.104C316.456 241.28 316.804 241.368 317.22 241.368C317.532 241.368 317.8 241.324 318.024 241.236C318.256 241.148 318.488 241.004 318.72 240.804L319.92 242.052C319.288 242.756 318.364 243.108 317.148 243.108C316.388 243.108 315.72 242.964 315.144 242.676C314.568 242.388 314.12 241.988 313.8 241.476C313.488 240.964 313.332 240.384 313.332 239.736C313.332 239.096 313.484 238.524 313.788 238.02C314.1 237.508 314.528 237.108 315.072 236.82C315.616 236.532 316.228 236.388 316.908 236.388C317.556 236.388 318.144 236.524 318.672 236.796C319.2 237.06 319.616 237.448 319.92 237.96C320.232 238.464 320.388 239.064 320.388 239.76ZM316.92 238.008C316.568 238.008 316.272 238.108 316.032 238.308C315.8 238.508 315.652 238.78 315.588 239.124H318.252C318.188 238.78 318.036 238.508 317.796 238.308C317.564 238.108 317.272 238.008 316.92 238.008ZM325.675 236.388C326.483 236.388 327.131 236.628 327.619 237.108C328.115 237.588 328.363 238.312 328.363 239.28V243H326.083V239.652C326.083 238.764 325.727 238.32 325.015 238.32C324.623 238.32 324.307 238.448 324.067 238.704C323.835 238.96 323.719 239.344 323.719 239.856V243H321.439V236.496H323.611V237.204C323.867 236.94 324.171 236.74 324.523 236.604C324.875 236.46 325.259 236.388 325.675 236.388ZM333.212 243.108C332.492 243.108 331.848 242.964 331.28 242.676C330.712 242.388 330.268 241.988 329.948 241.476C329.636 240.964 329.48 240.384 329.48 239.736C329.48 239.088 329.636 238.512 329.948 238.008C330.268 237.496 330.712 237.1 331.28 236.82C331.848 236.532 332.492 236.388 333.212 236.388C333.948 236.388 334.584 236.548 335.12 236.868C335.656 237.18 336.036 237.616 336.26 238.176L334.496 239.076C334.2 238.492 333.768 238.2 333.2 238.2C332.792 238.2 332.452 238.336 332.18 238.608C331.916 238.88 331.784 239.256 331.784 239.736C331.784 240.224 331.916 240.608 332.18 240.888C332.452 241.16 332.792 241.296 333.2 241.296C333.768 241.296 334.2 241.004 334.496 240.42L336.26 241.32C336.036 241.88 335.656 242.32 335.12 242.64C334.584 242.952 333.948 243.108 333.212 243.108ZM343.696 239.76C343.696 239.776 343.684 239.964 343.66 240.324H338.932C339.028 240.66 339.212 240.92 339.484 241.104C339.764 241.28 340.112 241.368 340.528 241.368C340.84 241.368 341.108 241.324 341.332 241.236C341.564 241.148 341.796 241.004 342.028 240.804L343.228 242.052C342.596 242.756 341.672 243.108 340.456 243.108C339.696 243.108 339.028 242.964 338.452 242.676C337.876 242.388 337.428 241.988 337.108 241.476C336.796 240.964 336.64 240.384 336.64 239.736C336.64 239.096 336.792 238.524 337.096 238.02C337.408 237.508 337.836 237.108 338.38 236.82C338.924 236.532 339.536 236.388 340.216 236.388C340.864 236.388 341.452 236.524 341.98 236.796C342.508 237.06 342.924 237.448 343.228 237.96C343.54 238.464 343.696 239.064 343.696 239.76ZM340.228 238.008C339.876 238.008 339.58 238.108 339.34 238.308C339.108 238.508 338.96 238.78 338.896 239.124H341.56C341.496 238.78 341.344 238.508 341.104 238.308C340.872 238.108 340.58 238.008 340.228 238.008ZM345.708 243.108C345.324 243.108 345 242.98 344.736 242.724C344.472 242.468 344.34 242.144 344.34 241.752C344.34 241.352 344.468 241.028 344.724 240.78C344.988 240.532 345.316 240.408 345.708 240.408C346.108 240.408 346.436 240.532 346.692 240.78C346.948 241.028 347.076 241.352 347.076 241.752C347.076 242.144 346.944 242.468 346.68 242.724C346.424 242.98 346.1 243.108 345.708 243.108ZM351.746 234.6H354.122V243H351.746V234.6ZM359.941 236.388C360.749 236.388 361.397 236.628 361.885 237.108C362.381 237.588 362.629 238.312 362.629 239.28V243H360.349V239.652C360.349 238.764 359.993 238.32 359.281 238.32C358.889 238.32 358.573 238.448 358.333 238.704C358.101 238.96 357.985 239.344 357.985 239.856V243H355.705V236.496H357.877V237.204C358.133 236.94 358.437 236.74 358.789 236.604C359.141 236.46 359.525 236.388 359.941 236.388ZM366.424 243.108C365.88 243.108 365.344 243.048 364.816 242.928C364.288 242.8 363.864 242.636 363.544 242.436L364.228 240.876C364.524 241.06 364.876 241.208 365.284 241.32C365.692 241.424 366.096 241.476 366.496 241.476C366.864 241.476 367.124 241.44 367.276 241.368C367.436 241.288 367.516 241.176 367.516 241.032C367.516 240.888 367.42 240.788 367.228 240.732C367.044 240.668 366.748 240.608 366.34 240.552C365.82 240.488 365.376 240.404 365.008 240.3C364.648 240.196 364.336 240.004 364.072 239.724C363.808 239.444 363.676 239.052 363.676 238.548C363.676 238.132 363.8 237.764 364.048 237.444C364.296 237.116 364.656 236.86 365.128 236.676C365.608 236.484 366.18 236.388 366.844 236.388C367.316 236.388 367.784 236.436 368.248 236.532C368.712 236.628 369.1 236.764 369.412 236.94L368.728 238.488C368.152 238.168 367.528 238.008 366.856 238.008C366.496 238.008 366.232 238.052 366.064 238.14C365.896 238.22 365.812 238.328 365.812 238.464C365.812 238.616 365.904 238.724 366.088 238.788C366.272 238.844 366.576 238.904 367 238.968C367.536 239.048 367.98 239.14 368.332 239.244C368.684 239.348 368.988 239.54 369.244 239.82C369.508 240.092 369.64 240.476 369.64 240.972C369.64 241.38 369.516 241.748 369.268 242.076C369.02 242.396 368.652 242.648 368.164 242.832C367.684 243.016 367.104 243.108 366.424 243.108ZM374.715 236.388C375.307 236.388 375.843 236.528 376.323 236.808C376.811 237.08 377.195 237.472 377.475 237.984C377.763 238.488 377.907 239.076 377.907 239.748C377.907 240.42 377.763 241.012 377.475 241.524C377.195 242.028 376.811 242.42 376.323 242.7C375.843 242.972 375.307 243.108 374.715 243.108C373.955 243.108 373.351 242.88 372.903 242.424V245.328H370.623V236.496H372.795V237.144C373.219 236.64 373.859 236.388 374.715 236.388ZM374.235 241.296C374.635 241.296 374.963 241.16 375.219 240.888C375.475 240.608 375.603 240.228 375.603 239.748C375.603 239.268 375.475 238.892 375.219 238.62C374.963 238.34 374.635 238.2 374.235 238.2C373.835 238.2 373.507 238.34 373.251 238.62C372.995 238.892 372.867 239.268 372.867 239.748C372.867 240.228 372.995 240.608 373.251 240.888C373.507 241.16 373.835 241.296 374.235 241.296ZM378.966 236.496H381.246V243H378.966V236.496ZM380.106 235.776C379.69 235.776 379.354 235.66 379.098 235.428C378.842 235.196 378.714 234.908 378.714 234.564C378.714 234.22 378.842 233.932 379.098 233.7C379.354 233.468 379.69 233.352 380.106 233.352C380.522 233.352 380.858 233.464 381.114 233.688C381.37 233.904 381.498 234.184 381.498 234.528C381.498 234.888 381.37 235.188 381.114 235.428C380.858 235.66 380.522 235.776 380.106 235.776ZM384.9 237.276C385.132 236.98 385.432 236.76 385.8 236.616C386.176 236.464 386.604 236.388 387.084 236.388V238.44C386.876 238.416 386.704 238.404 386.568 238.404C386.08 238.404 385.696 238.536 385.416 238.8C385.144 239.064 385.008 239.468 385.008 240.012V243H382.728V236.496H384.9V237.276ZM394.614 239.76C394.614 239.776 394.602 239.964 394.578 240.324H389.85C389.946 240.66 390.13 240.92 390.402 241.104C390.682 241.28 391.03 241.368 391.446 241.368C391.758 241.368 392.026 241.324 392.25 241.236C392.482 241.148 392.714 241.004 392.946 240.804L394.146 242.052C393.514 242.756 392.59 243.108 391.374 243.108C390.614 243.108 389.946 242.964 389.37 242.676C388.794 242.388 388.346 241.988 388.026 241.476C387.714 240.964 387.558 240.384 387.558 239.736C387.558 239.096 387.71 238.524 388.014 238.02C388.326 237.508 388.754 237.108 389.298 236.82C389.842 236.532 390.454 236.388 391.134 236.388C391.782 236.388 392.37 236.524 392.898 236.796C393.426 237.06 393.842 237.448 394.146 237.96C394.458 238.464 394.614 239.064 394.614 239.76ZM391.146 238.008C390.794 238.008 390.498 238.108 390.258 238.308C390.026 238.508 389.878 238.78 389.814 239.124H392.478C392.414 238.78 392.262 238.508 392.022 238.308C391.79 238.108 391.498 238.008 391.146 238.008Z" fill="black" fill-opacity="0.5"/>
<defs>
<clipPath id="clip0">
<rect width="98.3943" height="98.5121" fill="white" transform="translate(121 147.309)"/>
</clipPath>
</defs>
</svg>
